<?xml version="1.0" encoding="UTF-8" standalone="no"?>
<!-- Created with Inkscape (http://www.inkscape.org/) -->

<svg
   width="698.23383"
   height="117.03558"
   viewBox="0 0 698.23382 117.03558"
   version="1.1"
   id="svg1"
   xml:space="preserve"
   sodipodi:docname="5stars.svg"
   inkscape:version="1.3.2 (091e20e, 2023-11-25)"
   xmlns:inkscape="http://www.inkscape.org/namespaces/inkscape"
   xmlns:sodipodi="http://sodipodi.sourceforge.net/DTD/sodipodi-0.dtd"
   xmlns:xlink="http://www.w3.org/1999/xlink"
   xmlns="http://www.w3.org/2000/svg"
   xmlns:svg="http://www.w3.org/2000/svg"
   xmlns:rdf="http://www.w3.org/1999/02/22-rdf-syntax-ns#"
   xmlns:cc="http://creativecommons.org/ns#"
   xmlns:dc="http://purl.org/dc/elements/1.1/"><sodipodi:namedview
     id="namedview2"
     pagecolor="#ffffff"
     bordercolor="#000000"
     borderopacity="0.25"
     inkscape:showpageshadow="2"
     inkscape:pageopacity="0.0"
     inkscape:pagecheckerboard="0"
     inkscape:deskcolor="#d1d1d1"
     inkscape:zoom="0.71396037"
     inkscape:cx="367.66746"
     inkscape:cy="24.511164"
     inkscape:window-width="1366"
     inkscape:window-height="696"
     inkscape:window-x="0"
     inkscape:window-y="0"
     inkscape:window-maximized="1"
     inkscape:current-layer="svg1" /><defs
     id="defs1"><color-profile
       name="sRGB"
       xlink:href="file:///usr/share/color/icc/colord/sRGB.icc"
       id="color-profile1" /><style
       id="style1">.cls-1{fill:#ffd401;}</style></defs><path
     id="path6"
     style="fill:#ffd401"
     class="cls-1"
     d="M 61.455796,0 A 3.24,3.24 0 0 0 58.490952,1.9335938 L 42.780015,38.734375 3.0593121,42.292969 a 3.32,3.32 0 0 0 -2.2890625,1 3.24,3.24 0 0 0 0.3203125,4.521484 L 31.229234,74.103516 22.32103,113.10352 a 3.14,3.14 0 0 0 0.369141,2.38086 3.18,3.18 0 0 0 4.380859,1.08984 l 34.339844,-20.541017 34.25,20.441407 a 3.27,3.27 0 0 0 2.458985,0.45898 3.19,3.19 0 0 0 2.419921,-3.82031 L 91.63939,74.113281 121.82103,47.814453 a 3.2,3.2 0 0 0 -1.82031,-5.621094 L 80.129624,38.634766 64.42064,1.9335938 A 3.24,3.24 0 0 0 61.455796,0 Z M 205.27806,0 a 3.24,3.24 0 0 0 -2.96484,1.9335938 l -15.70898,36.8007812 -39.72071,3.558594 a 3.32,3.32 0 0 0 -2.28906,1 3.24,3.24 0 0 0 0.31836,4.521484 l 30.14062,26.289063 -8.91015,39.000004 a 3.14,3.14 0 0 0 0.37109,2.38086 3.18,3.18 0 0 0 4.37891,1.08984 l 34.33984,-20.541017 34.25,20.441407 a 3.27,3.27 0 0 0 2.46094,0.45898 3.19,3.19 0 0 0 2.41992,-3.82031 L 235.46361,74.113281 265.6433,47.814453 a 3.2,3.2 0 0 0 -1.82031,-5.621094 L 223.95384,38.634766 208.24291,1.9335938 A 3.24,3.24 0 0 0 205.27806,0 Z m 143.82422,0 a 3.24,3.24 0 0 0 -2.96484,1.9335938 L 330.4265,38.734375 290.70775,42.292969 a 3.32,3.32 0 0 0 -2.29101,1 3.24,3.24 0 0 0 0.32031,4.521484 l 30.14062,26.289063 -8.91015,39.000004 a 3.14,3.14 0 0 0 0.36914,2.38086 3.18,3.18 0 0 0 4.38086,1.08984 l 34.33984,-20.541017 34.25,20.441407 a 3.27,3.27 0 0 0 2.45898,0.45898 3.19,3.19 0 0 0 2.42188,-3.82031 L 379.28783,74.113281 409.46752,47.814453 A 3.2,3.2 0 0 0 407.6472,42.193359 L 367.77806,38.634766 352.06713,1.9335938 A 3.24,3.24 0 0 0 349.10228,0 Z M 492.9265,0 a 3.24,3.24 0 0 0 -2.96484,1.9335938 l -15.71094,36.8007812 -39.7207,3.558594 a 3.32,3.32 0 0 0 -2.28907,1 3.24,3.24 0 0 0 0.32032,4.521484 l 30.14062,26.289063 -8.91015,39.000004 a 3.14,3.14 0 0 0 0.36914,2.38086 3.18,3.18 0 0 0 4.38086,1.08984 l 34.33984,-20.541017 34.25,20.441407 a 3.27,3.27 0 0 0 2.45898,0.45898 3.19,3.19 0 0 0 2.41993,-3.82031 L 523.1101,74.113281 553.29174,47.814453 a 3.2,3.2 0 0 0 -1.82032,-5.621094 L 511.60033,38.634766 495.89134,1.9335938 A 3.24,3.24 0 0 0 492.9265,0 Z m 143.82227,0 a 3.24,3.24 0 0 0 -2.96485,1.9335938 l -15.70898,36.8007812 -39.7207,3.558594 a 3.32,3.32 0 0 0 -2.28907,1 3.24,3.24 0 0 0 0.32032,4.521484 l 30.13867,26.289063 -8.91016,39.000004 a 3.14,3.14 0 0 0 0.3711,2.38086 3.18,3.18 0 0 0 4.3789,1.08984 l 34.33984,-20.541017 34.25,20.441407 a 3.27,3.27 0 0 0 2.46094,0.45898 3.19,3.19 0 0 0 2.41992,-3.82031 L 666.93431,74.113281 697.114,47.814453 a 3.2,3.2 0 0 0 -1.82031,-5.621094 L 655.42455,38.634766 639.71361,1.9335938 A 3.24,3.24 0 0 0 636.74877,0 Z" /><metadata
     id="metadata1"><rdf:RDF><cc:Work
         rdf:about=""><dc:creator><cc:Agent><dc:title>Reno</dc:title></cc:Agent></dc:creator><dc:rights><cc:Agent><dc:title>Reno</dc:title></cc:Agent></dc:rights><dc:publisher><cc:Agent><dc:title>Reno</dc:title></cc:Agent></dc:publisher><dc:language>Indonesia</dc:language></cc:Work></rdf:RDF></metadata><style
     type="text/css"
     id="style1-7">.st0{fill-rule:evenodd;clip-rule:evenodd;}</style></svg>
