<?xml version="1.0" encoding="UTF-8" standalone="no"?>
<!-- Created with Inkscape (http://www.inkscape.org/) -->

<svg
   width="2342.8789"
   height="560"
   viewBox="0 0 2342.8789 560"
   version="1.1"
   id="svg1"
   xml:space="preserve"
   sodipodi:docname="Logo_Reno_2024_White.svg"
   inkscape:version="1.3.2 (091e20e, 2023-11-25)"
   xmlns:inkscape="http://www.inkscape.org/namespaces/inkscape"
   xmlns:sodipodi="http://sodipodi.sourceforge.net/DTD/sodipodi-0.dtd"
   xmlns="http://www.w3.org/2000/svg"
   xmlns:svg="http://www.w3.org/2000/svg"><sodipodi:namedview
     id="namedview1"
     pagecolor="#ffffff"
     bordercolor="#000000"
     borderopacity="0.25"
     inkscape:showpageshadow="2"
     inkscape:pageopacity="0.0"
     inkscape:pagecheckerboard="0"
     inkscape:deskcolor="#d1d1d1"
     inkscape:zoom="0.22431656"
     inkscape:cx="1167.9922"
     inkscape:cy="278.6241"
     inkscape:window-width="1366"
     inkscape:window-height="696"
     inkscape:window-x="0"
     inkscape:window-y="0"
     inkscape:window-maximized="1"
     inkscape:current-layer="svg1" /><defs
     id="defs1" /><path
     id="path6"
     style="fill:#ffffff;fill-opacity:1;stroke-width:6.96598;stroke-linecap:round"
     d="M 20,0 A 20,20 0 0 0 0,20 v 520 a 20,20 0 0 0 20,20 H 160 V 440 h 120 a 40,40 0 0 1 40,40 v 80 h 140 a 20,20 0 0 0 20,-20 V 480 A 200,200 0 0 0 434.84766,353.4668 220,220 0 0 0 480,220 220,220 0 0 0 260,0 H 160 Z m 520,0 a 20,20 0 0 0 -20,20 v 140 40 160 120 60 a 20,20 0 0 0 20,20 h 440 a 20,20 0 0 0 20,-20 V 400 H 680 v -40 h 320 V 200 H 680 v -40 h 320 V 20 A 20,20 0 0 0 980,0 H 680 Z m 500,0 v 540 a 20,20 0 0 0 20,20 h 140 V 280 Z m 320,0 v 280 l 160,280 V 20 A 20,20 0 0 0 1500,0 Z m 480,0 A 280,280 0 0 0 1560,280 280,280 0 0 0 1840,560 280,280 0 0 0 2120,280 280,280 0 0 0 1840,0 Z m 280,0 v 15.041016 h 36.3203 v 93.759764 h 17.9199 V 15.041016 h 36.1602 V 0 Z m 106.7207,0 v 108.80078 h 17.9199 l -0.4804,-87.681639 7.6796,22.720703 26.5606,64.960936 h 12.7988 L 2317.5996,44 l 7.8399,-23.359375 -0.4805,88.160155 h 17.9199 V 0 h -23.5195 l -30.4004,75.359375 -3.6797,11.521484 -3.6797,-11.521484 L 2250.8789,0 Z M 160,160 h 100 a 60,60 0 0 1 60,60 60,60 0 0 1 -60,60 H 160 Z m 1680,0 a 120,120 0 0 1 120,120 120,120 0 0 1 -120,120 120,120 0 0 1 -120,-120 120,120 0 0 1 120,-120 z" /></svg>
